<?xml version="1.0" encoding="UTF-8"?>
<!DOCTYPE svg PUBLIC "-//W3C//DTD SVG 1.1//EN" "http://www.w3.org/Graphics/SVG/1.1/DTD/svg11.dtd">
<!-- Creator: CorelDRAW -->
<svg xmlns="http://www.w3.org/2000/svg" xml:space="preserve" width="1.99999in" height="1.99999in" version="1.1" style="shape-rendering:geometricPrecision; text-rendering:geometricPrecision; image-rendering:optimizeQuality; fill-rule:evenodd; clip-rule:evenodd"
viewBox="0 0 2000 2000"
 xmlns:xlink="http://www.w3.org/1999/xlink">
 <defs>
  <style type="text/css">
   <![CDATA[
    .fil21 {fill:url(#id0)}
    .fil20 {fill:url(#id1)}
    .fil25 {fill:url(#id2)}
    .fil5 {fill:url(#id3)}
    .fil0 {fill:url(#id4)}
    .fil24 {fill:url(#id5)}
    .fil2 {fill:url(#id6)}
    .fil22 {fill:url(#id7)}
    .fil23 {fill:url(#id8)}
    .fil18 {fill:url(#id9)}
    .fil19 {fill:url(#id10)}
    .fil1 {fill:url(#id11)}
    .fil10 {fill:url(#id12)}
    .fil13 {fill:url(#id13)}
    .fil14 {fill:url(#id14)}
    .fil12 {fill:url(#id15)}
    .fil15 {fill:url(#id16)}
    .fil16 {fill:url(#id17)}
    .fil17 {fill:url(#id18)}
    .fil3 {fill:url(#id19)}
    .fil7 {fill:url(#id20)}
    .fil6 {fill:url(#id21)}
    .fil11 {fill:url(#id22)}
    .fil4 {fill:url(#id23)}
    .fil8 {fill:url(#id24)}
    .fil9 {fill:url(#id25)}
   ]]>
  </style>
  <linearGradient id="id0" gradientUnits="userSpaceOnUse" x1="443.201" y1="640.917" x2="443.201" y2="787.358">
   <stop offset="0" style="stop-opacity:1; stop-color:#33CC66"/>
   <stop offset="1" style="stop-opacity:1; stop-color:#339966"/>
  </linearGradient>
  <linearGradient id="id1" gradientUnits="userSpaceOnUse" xlink:href="#id0" x1="443.201" y1="457.634" x2="443.201" y2="604.075">
  </linearGradient>
  <linearGradient id="id2" gradientUnits="userSpaceOnUse" xlink:href="#id0" x1="1541.77" y1="1614.83" x2="1541.77" y2="1716.49">
  </linearGradient>
  <linearGradient id="id3" gradientUnits="userSpaceOnUse" x1="1013.07" y1="582.799" x2="1013.07" y2="220.728">
   <stop offset="0" style="stop-opacity:1; stop-color:#378B4E"/>
   <stop offset="1" style="stop-opacity:1; stop-color:#99CC33"/>
  </linearGradient>
  <linearGradient id="id4" gradientUnits="userSpaceOnUse" xlink:href="#id3" x1="1336.77" y1="1516.52" x2="1336.77" y2="1287.91">
  </linearGradient>
  <linearGradient id="id5" gradientUnits="userSpaceOnUse" xlink:href="#id0" x1="1541.77" y1="1482.59" x2="1541.77" y2="1584.24">
  </linearGradient>
  <linearGradient id="id6" gradientUnits="userSpaceOnUse" xlink:href="#id3" x1="1620.37" y1="1159.91" x2="1620.37" y2="908.461">
  </linearGradient>
  <linearGradient id="id7" gradientUnits="userSpaceOnUse" xlink:href="#id0" x1="1541.77" y1="1218.07" x2="1541.77" y2="1319.73">
  </linearGradient>
  <linearGradient id="id8" gradientUnits="userSpaceOnUse" xlink:href="#id0" x1="1541.77" y1="1350.34" x2="1541.77" y2="1452">
  </linearGradient>
  <linearGradient id="id9" gradientUnits="userSpaceOnUse" xlink:href="#id0" x1="1128.2" y1="708.256" x2="1128.2" y2="854.701">
  </linearGradient>
  <linearGradient id="id10" gradientUnits="userSpaceOnUse" xlink:href="#id0" x1="1128.2" y1="891.535" x2="1128.2" y2="1037.98">
  </linearGradient>
  <linearGradient id="id11" gradientUnits="userSpaceOnUse" xlink:href="#id3" x1="1746.13" y1="1516.52" x2="1746.13" y2="1287.93">
  </linearGradient>
  <linearGradient id="id12" gradientUnits="userSpaceOnUse" xlink:href="#id3" x1="1541.28" y1="1852.63" x2="1541.28" y2="1081.63">
  </linearGradient>
  <linearGradient id="id13" gradientUnits="userSpaceOnUse" xlink:href="#id0" x1="785.705" y1="511.098" x2="785.705" y2="657.543">
  </linearGradient>
  <linearGradient id="id14" gradientUnits="userSpaceOnUse" xlink:href="#id0" x1="785.705" y1="718.854" x2="785.705" y2="865.299">
  </linearGradient>
  <linearGradient id="id15" gradientUnits="userSpaceOnUse" xlink:href="#id0" x1="785.705" y1="303.366" x2="785.705" y2="449.811">
  </linearGradient>
  <linearGradient id="id16" gradientUnits="objectBoundingBox" xlink:href="#id0" x1="50.0056%" y1="0%" x2="50.0056%" y2="100%">
  </linearGradient>
  <linearGradient id="id17" gradientUnits="userSpaceOnUse" xlink:href="#id0" x1="785.705" y1="1134.34" x2="785.705" y2="1280.78">
  </linearGradient>
  <linearGradient id="id18" gradientUnits="userSpaceOnUse" xlink:href="#id0" x1="785.705" y1="1549.83" x2="785.705" y2="1696.28">
  </linearGradient>
  <linearGradient id="id19" gradientUnits="userSpaceOnUse" xlink:href="#id3" x1="1290.91" y1="794.472" x2="1290.91" y2="432.402">
  </linearGradient>
  <linearGradient id="id20" gradientUnits="userSpaceOnUse" xlink:href="#id3" x1="497.76" y1="1695.25" x2="497.76" y2="1130.94">
  </linearGradient>
  <linearGradient id="id21" gradientUnits="userSpaceOnUse" xlink:href="#id3" x1="1064.91" y1="1311.23" x2="1064.91" y2="593.343">
  </linearGradient>
  <linearGradient id="id22" gradientUnits="userSpaceOnUse" xlink:href="#id0" x1="1000.02" y1="1806.83" x2="1000.02" y2="1852.26">
  </linearGradient>
  <linearGradient id="id23" gradientUnits="userSpaceOnUse" xlink:href="#id3" x1="280.5" y1="621.854" x2="280.5" y2="259.783">
  </linearGradient>
  <linearGradient id="id24" gradientUnits="userSpaceOnUse" xlink:href="#id3" x1="506.516" y1="1060.6" x2="506.516" y2="342.724">
  </linearGradient>
  <linearGradient id="id25" gradientUnits="userSpaceOnUse" xlink:href="#id3" x1="785.713" y1="1852.26" x2="785.713" y2="147.362">
  </linearGradient>
 </defs>
 <g id="Layer_x0020_1">
  <metadata id="CorelCorpID_0Corel-Layer"/>
  <path class="fil0" d="M1393 1517c-30,0 -86,-55 -112,-92 -26,-37 -34,-72 -23,-100 12,-31 35,-37 52,-37 2,0 4,0 7,0 38,4 70,39 91,101 1,2 1,4 1,6 2,30 6,61 11,94 2,9 -3,18 -11,23 0,0 0,0 -1,0 -4,3 -9,5 -15,5z"/>
  <path class="fil1" d="M1689 1517c0,0 0,0 0,0 -7,0 -13,-3 -18,-7 -6,-5 -9,-13 -8,-21 6,-34 10,-67 11,-97 0,-3 1,-5 2,-7 21,-59 53,-93 90,-97 2,0 5,0 7,0 17,0 40,6 52,37 10,28 2,63 -24,100 -25,37 -82,92 -112,92z"/>
  <path class="fil2" d="M1621 1160c0,0 0,0 0,0 -2,0 -5,0 -6,-1 -4,-1 -7,-2 -9,-4 -3,-3 -6,-5 -9,-7 -2,-2 -4,-3 -6,-6 -25,-36 -68,-176 -4,-222 23,-16 48,-15 70,3 43,35 34,117 12,177 -18,53 -35,60 -48,60z"/>
  <path class="fil3" d="M1204 794c-13,0 -23,-10 -23,-22 0,-2 0,-3 1,-5 -3,-12 4,-24 16,-27 57,-14 63,-39 63,-57l0 -197c0,-30 31,-54 70,-54 39,0 70,24 70,54l0 197c0,51 -34,111 -197,111 0,0 0,0 0,0z"/>
  <path class="fil4" d="M368 622c0,0 0,0 0,0 -163,0 -197,-61 -197,-112l0 -197c0,-30 30,-53 70,-53 39,0 69,23 69,53l0 197c0,18 7,44 63,58 12,2 19,14 17,26 0,2 0,4 0,5 0,13 -10,23 -22,23z"/>
  <path class="fil5" d="M926 583c-13,0 -23,-10 -23,-23 0,-2 0,-3 1,-5 -3,-12 5,-24 17,-26 56,-14 62,-40 62,-58l0 -197c0,-30 31,-53 70,-53 39,0 70,23 70,53l0 197c0,51 -34,112 -197,112 0,0 0,0 0,0z"/>
  <path class="fil6" d="M926 1311c-13,0 -23,-10 -23,-22 0,-4 1,-7 3,-10 -1,-1 -1,-2 -2,-3 -3,-12 3,-25 15,-29 76,-24 113,-73 113,-147l0 -418c0,-49 44,-89 97,-89 54,0 98,40 98,89l0 418c0,96 -53,211 -301,211z"/>
  <path class="fil7" d="M645 1695c-211,0 -318,-56 -318,-168l0 -323c0,-41 45,-73 102,-73 58,0 102,32 102,73l0 323c0,20 0,80 120,108 12,3 19,15 17,28 -1,0 -1,1 -1,2 1,2 1,5 1,8 0,12 -10,22 -23,22z"/>
  <path class="fil8" d="M645 1061c-248,0 -300,-115 -300,-212l0 -418c0,-49 44,-88 97,-88 54,0 98,39 98,88l0 418c0,75 36,123 112,148 12,4 19,16 15,28 0,1 -1,2 -1,3 1,3 2,6 2,10 0,12 -10,23 -23,23z"/>
  <path class="fil9" d="M926 1852l-281 0c-12,0 -22,-10 -22,-22l0 -1520c0,-90 73,-163 163,-163 90,0 163,73 163,163l0 1520c0,12 -10,22 -23,22z"/>
  <path class="fil10" d="M1538 1853c0,0 0,0 0,0 -55,0 -106,-144 -126,-205 -63,-199 -84,-444 46,-536 61,-43 117,-41 176,7 138,112 82,405 27,560 -23,65 -69,174 -117,174 -1,0 -2,0 -3,0 -1,0 -2,0 -3,0z"/>
  <path class="fil11" d="M1766 1852l-1532 0c-12,0 -22,-10 -22,-22 0,-13 10,-23 22,-23l1532 0c12,0 23,10 23,23 0,12 -11,22 -23,22z"/>
  <path class="fil12" d="M786 450c-13,0 -23,-10 -23,-23l0 -101c0,-12 10,-23 23,-23 12,0 22,11 22,23l0 101c0,13 -10,23 -22,23z"/>
  <path class="fil13" d="M786 658c-13,0 -23,-11 -23,-23l0 -101c0,-13 10,-23 23,-23 12,0 22,10 22,23l0 101c0,12 -10,23 -22,23z"/>
  <path class="fil14" d="M786 865c-13,0 -23,-10 -23,-22l0 -101c0,-13 10,-23 23,-23 12,0 22,10 22,23l0 101c0,12 -10,22 -22,22z"/>
  <path class="fil15" d="M786 1073c-13,0 -23,-10 -23,-23l0 -101c0,-12 10,-22 23,-22 12,0 22,10 22,22l0 101c0,13 -10,23 -22,23z"/>
  <path class="fil16" d="M786 1281c-13,0 -23,-10 -23,-23l0 -101c0,-12 10,-23 23,-23 12,0 22,11 22,23l0 101c0,13 -10,23 -22,23z"/>
  <path class="fil15" d="M786 1489c-13,0 -23,-11 -23,-23l0 -101c0,-13 10,-23 23,-23 12,0 22,10 22,23l0 101c0,12 -10,23 -22,23z"/>
  <path class="fil17" d="M786 1696c-13,0 -23,-10 -23,-22l0 -101c0,-13 10,-23 23,-23 12,0 22,10 22,23l0 101c0,12 -10,22 -22,22z"/>
  <path class="fil18" d="M1128 855c-12,0 -23,-10 -23,-23l0 -101c0,-13 11,-23 23,-23 13,0 23,10 23,23l0 101c0,13 -10,23 -23,23z"/>
  <path class="fil19" d="M1128 1038c-12,0 -23,-10 -23,-23l0 -101c0,-12 11,-22 23,-22 13,0 23,10 23,22l0 101c0,13 -10,23 -23,23z"/>
  <path class="fil20" d="M443 604c-12,0 -23,-10 -23,-23l0 -101c0,-12 11,-22 23,-22 13,0 23,10 23,22l0 101c0,13 -10,23 -23,23z"/>
  <path class="fil21" d="M443 787c-12,0 -23,-10 -23,-22l0 -101c0,-13 11,-23 23,-23 13,0 23,10 23,23l0 101c0,12 -10,22 -23,22z"/>
  <path class="fil22" d="M1542 1320c-13,0 -23,-10 -23,-23l0 -56c0,-13 10,-23 23,-23 12,0 22,10 22,23l0 56c0,13 -10,23 -22,23z"/>
  <path class="fil23" d="M1542 1452c-13,0 -23,-10 -23,-23l0 -56c0,-12 10,-23 23,-23 12,0 22,11 22,23l0 56c0,13 -10,23 -22,23z"/>
  <path class="fil24" d="M1542 1584c-13,0 -23,-10 -23,-22l0 -57c0,-12 10,-22 23,-22 12,0 22,10 22,22l0 57c0,12 -10,22 -22,22z"/>
  <path class="fil25" d="M1542 1716c-13,0 -23,-10 -23,-22l0 -56c0,-13 10,-23 23,-23 12,0 22,10 22,23l0 56c0,12 -10,22 -22,22z"/>
 </g>
</svg>
