<?xml version="1.0" encoding="utf-8"?>
<!-- Generator: Adobe Illustrator 27.0.0, SVG Export Plug-In . SVG Version: 6.00 Build 0)  -->
<svg version="1.1" id="Layer_1" xmlns="http://www.w3.org/2000/svg" xmlns:xlink="http://www.w3.org/1999/xlink" x="0px" y="0px"
	 viewBox="0 0 64 64.1999969" style="enable-background:new 0 0 64 64.1999969;" xml:space="preserve">
<path d="M48.7543945,4.1748047c-0.5522461,0-1,0.4472656-1,1v3.3125c0,0.5527344,0.4477539,1,1,1s1-0.4472656,1-1v-3.3125
	C49.7543945,4.6220703,49.3066406,4.1748047,48.7543945,4.1748047z"/>
<path d="M47.7543945,26.3525391v3.3125c0,0.5527344,0.4477539,1,1,1s1-0.4472656,1-1v-3.3125c0-0.5527344-0.4477539-1-1-1
	S47.7543945,25.7998047,47.7543945,26.3525391z"/>
<path d="M61,16.4199219h-3.3129883c-0.5522461,0-1,0.4472656-1,1s0.4477539,1,1,1H61c0.5522461,0,1-0.4472656,1-1
	S61.5522461,16.4199219,61,16.4199219z"/>
<path d="M40.8217773,17.4199219c0-0.5527344-0.4477539-1-1-1h-3.3125c-0.5522461,0-1,0.4472656-1,1s0.4477539,1,1,1h3.3125
	C40.3740234,18.4199219,40.8217773,17.9726562,40.8217773,17.4199219z"/>
<path d="M58.1206055,8.0537109c-0.390625-0.390625-1.0234375-0.390625-1.4140625,0l-2.3427734,2.3427734
	c-0.390625,0.390625-0.390625,1.0234375,0,1.4140625c0.1953125,0.1953125,0.4511719,0.2929688,0.7070312,0.2929688
	s0.5117188-0.0976562,0.7070312-0.2929688l2.3427734-2.3427734C58.5112305,9.0771484,58.5112305,8.4443359,58.1206055,8.0537109z"/>
<path d="M40.0957031,27.0791016c0.2558594,0,0.5117188-0.0976562,0.7070312-0.2929688l2.3422852-2.3427734
	c0.390625-0.390625,0.390625-1.0234375,0-1.4140625s-1.0234375-0.390625-1.4140625,0l-2.3422852,2.3427734
	c-0.390625,0.390625-0.390625,1.0234375,0,1.4140625C39.5839844,26.9814453,39.8398438,27.0791016,40.0957031,27.0791016z"/>
<path d="M55.777832,23.0292969c-0.390625-0.390625-1.0234375-0.390625-1.4140625,0s-0.390625,1.0234375,0,1.4140625
	l2.3427734,2.3427734c0.1953125,0.1953125,0.4511719,0.2929688,0.7070312,0.2929688s0.5117188-0.0976562,0.7070312-0.2929688
	c0.390625-0.390625,0.390625-1.0234375,0-1.4140625L55.777832,23.0292969z"/>
<path d="M43.1450195,10.3964844l-2.3422852-2.3427734c-0.390625-0.390625-1.0234375-0.390625-1.4140625,0
	s-0.390625,1.0234375,0,1.4140625l2.3422852,2.3427734c0.1953125,0.1953125,0.4511719,0.2929688,0.7070312,0.2929688
	s0.5117188-0.0976562,0.7070312-0.2929688C43.5356445,11.4199219,43.5356445,10.7871094,43.1450195,10.3964844z"/>
<path d="M28.0224609,11.2783203c-0.2788086-0.9658203-0.684082-1.5664062-1.0834961-1.6064453
	c-0.3911133-0.0439453-0.5766602,0.0722656-0.6948242,0.1748047c-0.8691406,0.7568359-0.9711914,3.5253906-1.0532227,5.7490234
	c-0.0483398,1.3017578-0.0932617,2.53125-0.2602539,3.5966797c-0.4688721,3.0031128-2.6151123,4.4144287-4.1845703,4.9206543
	l-0.0386963,1.8158569c0.9032593-0.1064453,2.5800781-0.5737915,4.8824463-2.3751831
	C28.0092773,21.6591797,29.0449219,14.8154297,28.0224609,11.2783203z"/>
<path d="M36.875,32.1005859c-0.2163086-0.7490234-0.4897461-1.0410156-0.6206055-1.0537109
	c-0.2319336-0.0253906-0.3076172,0.0410156-0.3481445,0.0761719c-0.5844727,0.5078125-0.6630859,2.6455078-0.7207031,4.2070312
	c-0.0366211,0.9980469-0.0712891,1.9414062-0.2006836,2.7666016c-0.3588257,2.2971191-1.9462891,3.4282837-3.1860352,3.8788452
	l-0.0198975,0.9337769c0.6884155-0.1348267,1.8196411-0.5378418,3.3255615-1.7159424
	C36.8837891,39.8007812,37.6342773,34.7294922,36.875,32.1005859z"/>
<path d="M4.0605469,22.2138672c-0.4926758,4.0195312,1.972168,10.8300781,4.840332,11.6191406
	c1.1808472,0.3237915,2.2511597,0.4853516,3.1988525,0.4840698c-0.0273438-0.5960083-0.0540771-1.182251-0.0802612-1.7578735
	c-1.3226929-0.1745605-2.7147827-1.133606-3.3373413-3.4967041c-0.2783203-1.0585938-0.3286133-2.2890625-0.3818359-3.5917969
	c-0.1523438-3.734375-0.4702148-5.4833984-2.7958984-5.4316406C4.7211914,20.0576172,4.2353516,20.7900391,4.0605469,22.2138672z"/>
<path d="M26.7519531,49.9638672c0.4979248-0.038147,0.9856567-0.0691528,1.4655151-0.0930786
	c0.0137329-0.0006714,0.0270386-0.0007935,0.0408325-0.0014648c0.4639282-0.0227661,0.9212036-0.0395508,1.3725586-0.0490112
	l0.3193359-14.9716797c0.0004883-0.0097656,0.0009766-0.0205078,0.0014648-0.0302734
	c0.0727539-1.4091797-0.1318359-3.9814453-0.9887695-4.8837891c-0.1889648-0.1992188-0.378418-0.2841797-0.6328125-0.2841797
	c-0.3676758,0-0.6391602,0.1103516-0.8798828,0.3574219c-1.3515625,1.3876953-1.2226562,6.3105469-1.1606445,8.6757812
	C26.3256836,40.4111328,26.5024414,44.4404297,26.7519531,49.9638672z"/>
<path d="M56.9869995,56.3561401c0.7147827,0.4091797,1.4168701,0.8345337,2.1027832,1.2803345
	c0.0869141,0.0565186,0.1802368,0.1052856,0.2666626,0.1623535c0.1228638,0,0.2453613-0.0002441,0.367981-0.0005493
	C59.8163452,57.7980957,59.9081421,57.7979126,60,57.7977295v-5.7733154
	c-4.149353-0.3748779-8.3245239-0.2772827-12.3539429,0.2682495c0.9629517,0.3013916,1.90271,0.6380615,2.8309326,0.9915771
	c0.2080688,0.0791626,0.4144287,0.1603394,0.6206055,0.2421265c0.8625488,0.3422241,1.7131348,0.7017212,2.5437012,1.0891113
	c0.0561523,0.026123,0.1143799,0.0494385,0.1704102,0.0758057c0.864624,0.4075317,1.7061157,0.8463745,2.5344238,1.3025513
	C56.5615845,56.1124268,56.7741699,56.234314,56.9869995,56.3561401z"/>
<path d="M17.9160156,18.0380859h0.0102539c0.4366455,0,0.7977905,0.2836304,0.9341431,0.6738892l0.0795288-3.7334595
	c0.0004883-0.0097656,0.0009766-0.0205078,0.0014648-0.0302734c0.0703125-1.3691406-0.0410156-5.2324219-1.3857422-6.6484375
	C17.2509766,7.9794922,16.9155273,7.8300781,16.5,7.8300781c-0.5639648,0-1.0009766,0.1787109-1.3745117,0.5625
	c-1.6430664,1.6845703-1.7387695,6.8251953-1.6162109,11.6318359c0.1020508,4.1445312,0.8085938,19.0976562,1.4365234,32.1191406
	c0.3909302-0.1189575,0.7802734-0.2268677,1.1696167-0.3354492c0.1018066-0.0283813,0.2036133-0.0598145,0.3052979-0.0875244
	c0.5852661-0.1593628,1.168335-0.3092041,1.7462769-0.4442139l0.6781006-31.8450928
	c-0.152832,0.3567505-0.5062866,0.6068115-0.9188232,0.6068115c-0.5522461,0-1.0048828-0.4472656-1.0048828-1
	S17.3637695,18.0380859,17.9160156,18.0380859z M14.8549805,16.7539062c-0.5522461,0-1.0048828-0.4472656-1.0048828-1
	s0.4423828-1,0.9946289-1h0.0102539c0.5522461,0,1,0.4472656,1,1S15.4072266,16.7539062,14.8549805,16.7539062z
	 M17.2016602,27.6455078h0.0102539c0.5522461,0,1,0.4472656,1,1s-0.4477539,1-1,1s-1.0048828-0.4472656-1.0048828-1
	S16.6494141,27.6455078,17.2016602,27.6455078z M16.2070312,11.6455078c0-0.5527344,0.4423828-1,0.9946289-1h0.0102539
	c0.5522461,0,1,0.4472656,1,1s-0.4477539,1-1,1S16.2070312,12.1982422,16.2070312,11.6455078z"/>
<path d="M55.3942261,57.7471924c-3.7908936-2.0776978-8.0702515-3.6714478-12.5593262-4.6662598
	c-0.0067139-0.0014648-0.0132446-0.0032959-0.0199585-0.0047607c-3.7890625-0.8466797-7.75-1.2763672-11.7749023-1.2763672
	c-0.0200195,0-0.0400391,0-0.0605469,0c-0.0996094,0-0.2026367,0.0009766-0.300293,0.0078125
	c-0.0227661,0-0.0455933,0.001709-0.0682983,0.00177c-0.0003662,0-0.0006714,0.0001831-0.0010376,0.0001831
	c-0.7451172,0-1.5020752,0.0194092-2.2814331,0.0581665c-0.7907715,0.0393066-1.5957031,0.0980835-2.4343872,0.1771851
	c-2.1806641,0.2011719-4.3769531,0.5419922-6.5307617,1.0117188c-0.0008545,0.0001831-0.0015869,0.0007935-0.0024414,0.0009766
	c-1.6464844,0.3554688-3.3408203,0.8203125-5.0366211,1.3818359c-2.7587891,0.9130859-5.362793,2.046875-7.777832,3.3847656
	c1.1635742,0,2.3681641-0.0009766,3.6079102-0.0019531l4.1157227-0.0019531c0.0029297,0,0.0058594,0,0.0087891,0
	c1.5351562,0,3.1098633,0,4.7143555-0.0107422c1.5644531,0.0078125,3.1445312,0.0058594,4.7431641,0.0019531l3.2546997-0.0009766
	c0.00354-0.000061,0.0064087-0.0019531,0.0099487-0.0019531c9.7550659-0.0107422,19.9129028-0.03125,28.4098511-0.0527344
	C55.4053955,57.7528687,55.3996582,57.7501831,55.3942261,57.7471924z M18.4487305,57.0712891
	c-0.5522461,0-1.0048828-0.4472656-1.0048828-1s0.4423828-1,0.9946289-1h0.0102539c0.5522461,0,1,0.4472656,1,1
	S19.0009766,57.0712891,18.4487305,57.0712891z M34.0712891,57.0712891H21.3569336c-0.5522461,0-1-0.4472656-1-1s0.4477539-1,1-1
	h12.7143555c0.5522461,0,1,0.4472656,1,1S34.6235352,57.0712891,34.0712891,57.0712891z"/>
<circle cx="48.7543945" cy="17.4199219" r="4.8369141"/>
</svg>
